<svg id="Layer_1" data-name="Layer 1" xmlns="http://www.w3.org/2000/svg" viewBox="0 0 404.07 600"><path d="M377.63,1.83,27.13,0A26.49,26.49,0,0,0,.64,26.49V538.73A61.27,61.27,0,0,0,61.91,600H342.74A61.27,61.27,0,0,0,404,538.73l.11-510.41A26.49,26.49,0,0,0,377.63,1.83Zm-7,33.17-1,475.24a24.81,24.81,0,0,1-22,13.07H58.87a24.82,24.82,0,0,1-22.92-15V35ZM337.49,564H68.1a32.15,32.15,0,0,1-31.86-27.9,44,44,0,0,0,22.63,6.21H347.72a44.06,44.06,0,0,0,21.55-5.58A32.15,32.15,0,0,1,337.49,564Z"/><path d="M255,187.47a10.5,10.5,0,0,0-9.15,5.11q-3.4,5.11-3.41,16t3.41,16a10.75,10.75,0,0,0,18.3,0q3.41-5.1,3.4-16t-3.4-16A10.51,10.51,0,0,0,255,187.47Z"/><path d="M159,154.27q3.39-5.1,3.4-16t-3.4-16a10.49,10.49,0,0,0-9.15-5.11q-5.55,0-9.05,5.22t-3.51,15.85q0,10.65,3.51,15.85t9.05,5.22A10.5,10.5,0,0,0,159,154.27Z"/><path d="M72.12,75.55V271.3H333V75.55Zm39.65,62.76q0-12.56,4.89-21.92A34.91,34.91,0,0,1,130.18,102a38.54,38.54,0,0,1,19.69-5q17,0,27.66,11.18t10.64,30.11q0,19.16-10.64,30.22T149.87,179.6q-16.81,0-27.46-11.07T111.77,138.31Zm24.47,109.6L238,98.94h30.65l-101.73,149Zm146.43-9.15Q272,249.83,255,249.83t-27.56-11.07q-10.55-11.06-10.54-30.22,0-18.93,10.64-30.11T255,167.25q17,0,27.67,11.18t10.64,30.11Q293.31,227.7,282.67,238.76Z"/><path d="M122,344.12a3.87,3.87,0,0,1-3.87,3.87H75.84A3.87,3.87,0,0,1,72,344.12V301.87A3.87,3.87,0,0,1,75.84,298h42.24a3.87,3.87,0,0,1,3.87,3.87Z"/><path d="M192.29,344.12a3.88,3.88,0,0,1-3.87,3.87H146.17a3.87,3.87,0,0,1-3.87-3.87V301.87a3.87,3.87,0,0,1,3.87-3.87h42.25a3.87,3.87,0,0,1,3.87,3.87Z"/><path d="M262.62,344.12a3.87,3.87,0,0,1-3.87,3.87H216.5a3.88,3.88,0,0,1-3.87-3.87V301.87A3.87,3.87,0,0,1,216.5,298h42.25a3.87,3.87,0,0,1,3.87,3.87Z"/><path d="M333,344.12a3.87,3.87,0,0,1-3.87,3.87H286.84a3.87,3.87,0,0,1-3.87-3.87V301.87a3.87,3.87,0,0,1,3.87-3.87h42.24a3.87,3.87,0,0,1,3.87,3.87Z"/><path d="M122,417.56a3.87,3.87,0,0,1-3.87,3.87H75.84A3.87,3.87,0,0,1,72,417.56V375.31a3.87,3.87,0,0,1,3.87-3.87h42.24a3.87,3.87,0,0,1,3.87,3.87Z"/><path d="M192.29,417.56a3.88,3.88,0,0,1-3.87,3.87H146.17a3.87,3.87,0,0,1-3.87-3.87V375.31a3.87,3.87,0,0,1,3.87-3.87h42.25a3.87,3.87,0,0,1,3.87,3.87Z"/><path d="M262.62,417.56a3.87,3.87,0,0,1-3.87,3.87H216.5a3.88,3.88,0,0,1-3.87-3.87V375.31a3.87,3.87,0,0,1,3.87-3.87h42.25a3.87,3.87,0,0,1,3.87,3.87Z"/><path d="M333,491a3.87,3.87,0,0,1-3.87,3.87H286.84A3.87,3.87,0,0,1,283,491V375.31a3.87,3.87,0,0,1,3.87-3.87h42.24a3.87,3.87,0,0,1,3.87,3.87Z"/><path d="M122,491a3.87,3.87,0,0,1-3.87,3.87H75.84A3.87,3.87,0,0,1,72,491V448.75a3.87,3.87,0,0,1,3.87-3.87h42.24a3.87,3.87,0,0,1,3.87,3.87Z"/><path d="M192.29,491a3.87,3.87,0,0,1-3.87,3.87H146.17A3.87,3.87,0,0,1,142.3,491V448.75a3.87,3.87,0,0,1,3.87-3.87h42.25a3.87,3.87,0,0,1,3.87,3.87Z"/><path d="M262.62,491a3.87,3.87,0,0,1-3.87,3.87H216.5a3.87,3.87,0,0,1-3.87-3.87V448.75a3.87,3.87,0,0,1,3.87-3.87h42.25a3.87,3.87,0,0,1,3.87,3.87Z"/></svg>