<svg id="Layer_1" data-name="Layer 1" xmlns="http://www.w3.org/2000/svg" viewBox="0 0 600.3 600"><path d="M.6,342.68V546.29a11.56,11.56,0,0,0,11.55,11.56H99V331.13H12.15A11.55,11.55,0,0,0,.6,342.68Z"/><path d="M596.28,414.8c-10.53-21.06-31.21-23.55-45-19.34s-117.58,45-117.58,45,4.22,25.86-8.81,39.83-27.19,20.5-37.72,20.5-128.69.19-134.43.19-6.32-1.73-6.32-1.73l-4.21-14.93a18.59,18.59,0,0,0,11.1,4.21c6.32,0,125.43-.19,136.73-.19s31.79-12.26,31.79-38.11-22.6-37.53-35.24-37.53-85-.39-96.13-.39-23.36-7.08-32.55-15.51-30.26-32.17-55.53-41.75-43.2-9.14-43.2-9.14H128a4.15,4.15,0,0,0-4.15,4.15v194.2a38.33,38.33,0,0,1,22,1.91c13.3,5.17,116.43,41.75,126.2,45.19s16.08,4,21.45,4,16.08-1,23.93-4.79S565.84,470.91,580.39,464.4,606.82,435.87,596.28,414.8Z"/><path d="M122.48,323a27.86,27.86,0,0,1,5.52-.56h31.58c5.38,0,25,.77,51.1,10.67,25.68,9.73,46,29.68,58.12,41.6,2,2,3.72,3.66,4.95,4.78,7.43,6.82,14.19,9.36,16.71,9.36,5.43,0,24.92.08,45.56.18,21.68.1,44.1.2,50.57.2,15.88,0,35.7,8.82,47.76,25.77,18.87-7.4,59.72-23.35,86.49-33.45V12.21A11.55,11.55,0,0,0,509.29.66H90.5A11.55,11.55,0,0,0,79,12.21V307.69h43.53Zm322.87-118.1a3.07,3.07,0,0,1,3.7.19l31.31,31.63a2,2,0,0,1-1.95,2H464.85v88.45a2,2,0,0,1-2,2H431.31a2,2,0,0,1-2-2V238.71H415.79a2,2,0,0,1-2-2Zm-94,0a3.07,3.07,0,0,1,3.7.19l31.32,31.63a2,2,0,0,1-2,2H370.84v88.45a2,2,0,0,1-1.95,2H337.3a2,2,0,0,1-2-2V238.71H321.78a2,2,0,0,1-1.95-2ZM311,355.09a8,8,0,0,1,8-8H481.13a8,8,0,0,1,8,8v1.18a8,8,0,0,1-8,8H319.06a8,8,0,0,1-8-8v-1.18Z"/></svg>