<svg id="Layer_1" data-name="Layer 1" xmlns="http://www.w3.org/2000/svg" viewBox="0 0 650.62 600"><rect x="249.69" y="107.26" width="232.67" height="144.18" transform="translate(-34.22 102.25) rotate(-15.2)"/><path d="M381.89,505.75l264.4-71.84-10.33-38-265.13,72A109.59,109.59,0,0,1,381.89,505.75Z"/><path d="M344.92,434.37l305.7-83.06L612.81,212.17,278.1,303.11l29.81,109.75A110.33,110.33,0,0,1,344.92,434.37Z"/><path d="M261.09,407.42l-101.37-397V9.94H88.08A24.21,24.21,0,0,0,68.51,0H24.23a24.23,24.23,0,0,0,0,48.46H68.51a24.25,24.25,0,0,0,22-14.11H127.4l97.77,382.93A109.78,109.78,0,0,1,261.09,407.42Z"/><path d="M272,433.25a84.14,84.14,0,1,0,84.14,84.14A84.14,84.14,0,0,0,272,433.25Zm0,121a36.84,36.84,0,1,1,36.84-36.83A36.83,36.83,0,0,1,272,554.22Z"/></svg>