<svg id="Layer_1" data-name="Layer 1" xmlns="http://www.w3.org/2000/svg" viewBox="0 0 881.75 600"><rect y="110.07" width="383.79" height="51.26"/><rect y="221.1" width="276.59" height="51.26"/><rect y="332.13" width="164.6" height="51.26"/><path d="M871.13,332.85c-11.88-17.52-81.91-121.78-87.38-131.49-8.24-15.31-31.35-36.88-56.92-36.88H549.16V76.85A76.94,76.94,0,0,0,472.31,0H0V51.26H472.31A25.62,25.62,0,0,1,497.9,76.85V497.72H268a80.29,80.29,0,0,0-152.21,0H78.46a25.63,25.63,0,0,1-25.6-25.6V440.07H1.6v32.05A76.94,76.94,0,0,0,78.46,549h37.33A80.29,80.29,0,0,0,268,549H615.67a80.3,80.3,0,0,0,152.22,0h37a76.93,76.93,0,0,0,76.85-76.85V379.77C881.75,361,880,345.85,871.13,332.85ZM191.89,552.41A29.07,29.07,0,1,1,221,523.34,29.1,29.1,0,0,1,191.89,552.41Zm499.89,0a29.07,29.07,0,1,1,29.06-29.07A29.1,29.1,0,0,1,691.78,552.41Zm138.71-80.29a25.63,25.63,0,0,1-25.59,25.6h-37a80.3,80.3,0,0,0-152.22,0H549.16v-282H726.45c3.32.75,10.26,6.38,12.16,9.91,6.46,12,89.28,134.75,90.09,136,.18.31,1.79,3.41,1.79,18.17Z"/></svg>