<svg id="Layer_1" data-name="Layer 1" xmlns="http://www.w3.org/2000/svg" viewBox="0 0 507.93 600"><path d="M175.49,463.63A16.8,16.8,0,0,1,162,436.81l73.75-99.31v-118a16.8,16.8,0,0,1,33.6,0V343.05a16.82,16.82,0,0,1-3.31,10L189,456.84A16.76,16.76,0,0,1,175.49,463.63Z"/><rect x="65.2" y="338.66" width="28.66" height="17.69"/><rect x="414.08" y="338.66" width="28.66" height="17.69"/><rect x="245.12" y="507.61" width="17.69" height="28.66"/><rect x="245.12" y="158.73" width="17.69" height="28.66"/><rect x="160.8" y="180.46" width="17.69" height="28.66" transform="translate(-73.02 106.25) rotate(-28.9)"/><rect x="329.41" y="485.88" width="17.69" height="28.66" transform="translate(-199.63 225.79) rotate(-28.9)"/><rect x="97.5" y="240.22" width="17.69" height="28.66" transform="matrix(0.53, -0.85, 0.85, 0.53, -165.73, 208.95)"/><rect x="392.75" y="426.11" width="17.69" height="28.66" transform="matrix(0.53, -0.85, 0.85, 0.53, -185.08, 545.68)"/><rect x="86.92" y="422.96" width="28.66" height="17.69" transform="translate(-196.12 102.75) rotate(-28.91)"/><rect x="392.35" y="254.37" width="28.66" height="17.69" transform="translate(-76.56 229.34) rotate(-28.9)"/><rect x="146.68" y="486.28" width="28.66" height="17.69" transform="matrix(0.53, -0.85, 0.85, 0.53, -343.78, 367.64)"/><rect x="332.57" y="191.04" width="28.66" height="17.69" transform="matrix(0.53, -0.85, 0.85, 0.53, -7.05, 386.98)"/><path d="M254,120.15c-125.56,0-227.35,101.79-227.35,227.35S128.41,574.85,254,574.85,481.31,473.06,481.31,347.5,379.53,120.15,254,120.15Zm0,424.69c-109,0-197.35-88.35-197.35-197.34S145,150.16,254,150.16,451.31,238.51,451.31,347.5,363,544.84,254,544.84Z"/><path d="M442.26,177.1l17.23-17.75c13.34,7.36,25.61,8.9,31.54,2.79,8.89-9.16.17-32-19.47-51.1S428.78,84,419.9,93.13c-5.8,6-4.11,17.78,3.22,30.55l-18.66,19.24A252.64,252.64,0,0,0,286.2,95.56V60.1c19.8-5.4,33.11-15.42,33.11-26.89,0-17.19-29.88-31.13-66.75-31.13S185.81,16,185.81,33.21c0,11.21,12.72,21,31.78,26.52V96.14C94.56,113.79,0,219.59,0,347.5c0,140.26,113.71,254,254,254s254-113.71,254-254A253,253,0,0,0,442.26,177.1ZM254,588.68c-133.2,0-241.19-108-241.19-241.18S120.77,106.32,254,106.32s241.18,108,241.18,241.18S387.17,588.68,254,588.68Z"/></svg>