<svg id="Layer_1_Image" data-name="Layer 1 Image" xmlns="http://www.w3.org/2000/svg" viewBox="0 0 1282.61 817.67"><path d="M1041.55,559.17a128,128,0,1,0,128,128A128,128,0,0,0,1041.55,559.17Zm0,187a59,59,0,1,1,59-59A59,59,0,0,1,1041.55,746.17Z"/><path d="M1181.05,216.67c-23.62-26.19-54-23-54-23h-207V568.28a170,170,0,0,1,287.77,83.39h50.91a22.32,22.32,0,0,0,22.32-22.32V419.24C1281.05,370.67,1204.66,242.85,1181.05,216.67ZM986.38,355.33v-119h149.33c6.63,0,6.63,0,20,14.67,24.57,31.45,49.86,80.64,61.46,104.33Z"/><path d="M796.05,1.67h-747V549.88H43.66A42.78,42.78,0,0,0,.88,592.66v10.23a42.78,42.78,0,0,0,42.78,42.78h65.83a170,170,0,0,1,329.78,0H868.05v-572A72,72,0,0,0,796.05,1.67Z"/><path d="M274.38,559.17a128,128,0,1,0,128,128A128,128,0,0,0,274.38,559.17Zm0,187a59,59,0,1,1,59-59A59,59,0,0,1,274.38,746.17Z"/></svg>