<svg id="Capa_1" data-name="Capa 1" xmlns="http://www.w3.org/2000/svg" viewBox="0 0 33.29 33.29"><path d="M2,31.35l5.5-.92a2,2,0,0,0,1.24-.88l.7-1.3c0-1.46.27-4.15,7.13-4.21s7.2,2.62,7.21,4.08l.73,1.29a1.93,1.93,0,0,0,1.25.85l5.51.81a1.05,1.05,0,0,0,1.11-.67L33.22,28c-.06-5.51-7.22-9.61-16.68-9.52S0,22.83,0,28.34L.9,30.69A1.07,1.07,0,0,0,2,31.35Z"/><path d="M18.05,11.89a1.43,1.43,0,0,1-1.42,1.42h0a1.42,1.42,0,0,1-1.42-1.42V3.44A1.42,1.42,0,0,1,16.63,2h0a1.43,1.43,0,0,1,1.42,1.42Z"/><path d="M8.83,13.44a1.41,1.41,0,0,1-.67,1.89h0a1.43,1.43,0,0,1-1.9-.66L2.59,7.09A1.41,1.41,0,0,1,3.25,5.2h0a1.43,1.43,0,0,1,1.91.66Z"/><path d="M30.67,7.09A1.41,1.41,0,0,0,30,5.2h0a1.42,1.42,0,0,0-1.9.66l-3.67,7.58a1.4,1.4,0,0,0,.66,1.89h0A1.44,1.44,0,0,0,27,14.67Z"/></svg>