<svg id="Layer_1" data-name="Layer 1" xmlns="http://www.w3.org/2000/svg" viewBox="0 0 454.88 600"><path d="M394.08,363.77V24.8H333.71V0H68.58V24.8H0V536.44H218.65V600H454.88V363.77ZM36.8,498.78V61.61H68.58v26H333.71V61.61h23.56V363.77H218.65v45.5H178.37a13.46,13.46,0,0,0-13.45,13.46v1.87a13.45,13.45,0,0,0,13.45,13.45h40.28v60.73ZM429,574.09H242.53V387.65H429V574.09Z"/><polygon points="412.34 430.77 385.55 410.73 322.27 500.58 290.43 468.1 265.75 492.56 326.7 553.73 412.34 430.77"/><path d="M178.37,169.86H317.18a13.46,13.46,0,0,0,13.46-13.46v-1.87a13.46,13.46,0,0,0-13.46-13.45H178.37a13.45,13.45,0,0,0-13.45,13.45v1.87A13.46,13.46,0,0,0,178.37,169.86Z"/><path d="M126.69,133.13H86.63a2.3,2.3,0,0,0-2.31,2.31V175.5a2.3,2.3,0,0,0,2.31,2.31h40.06A2.3,2.3,0,0,0,129,175.5V135.44A2.3,2.3,0,0,0,126.69,133.13Z"/><path d="M178.37,259.26H317.18a13.46,13.46,0,0,0,13.46-13.46v-1.87a13.46,13.46,0,0,0-13.46-13.45H178.37a13.45,13.45,0,0,0-13.45,13.45v1.87A13.46,13.46,0,0,0,178.37,259.26Z"/><path d="M126.69,222.52H86.63a2.31,2.31,0,0,0-2.31,2.31V264.9a2.31,2.31,0,0,0,2.31,2.31h40.06A2.31,2.31,0,0,0,129,264.9V224.83A2.3,2.3,0,0,0,126.69,222.52Z"/><path d="M178.37,348.65H317.18a13.46,13.46,0,0,0,13.46-13.45v-1.87a13.46,13.46,0,0,0-13.46-13.45H178.37a13.45,13.45,0,0,0-13.45,13.45v1.87A13.45,13.45,0,0,0,178.37,348.65Z"/><path d="M126.69,311.92H86.63a2.31,2.31,0,0,0-2.31,2.31V354.3a2.31,2.31,0,0,0,2.31,2.31h40.06A2.31,2.31,0,0,0,129,354.3V314.23A2.3,2.3,0,0,0,126.69,311.92Z"/><path d="M126.69,401.32H86.63a2.31,2.31,0,0,0-2.31,2.31V443.7A2.31,2.31,0,0,0,86.63,446h40.06A2.31,2.31,0,0,0,129,443.7V403.63A2.3,2.3,0,0,0,126.69,401.32Z"/></svg>