<svg id="Layer_1" data-name="Layer 1" xmlns="http://www.w3.org/2000/svg" viewBox="0 0 480.64 600"><path d="M306.49,203.74h-126a15,15,0,0,1,0-30h126a15,15,0,1,1,0,30Z"/><path d="M110.45,218.07,81,186.75A9.23,9.23,0,0,1,94.43,174.1l14.83,15.77L140,151.14a9.23,9.23,0,0,1,14.46,11.49Z"/><path d="M306.49,284.05h-126a15,15,0,1,1,0-30h126a15,15,0,1,1,0,30Z"/><path d="M110.45,298.38,81,267.07a9.23,9.23,0,1,1,13.45-12.65l14.84,15.76L140,231.46a9.23,9.23,0,0,1,14.46,11.48Z"/><path d="M306.49,364.37h-126a15,15,0,0,1,0-30h126a15,15,0,1,1,0,30Z"/><path d="M110.45,378.7,81,347.39a9.24,9.24,0,1,1,13.45-12.66l14.83,15.77L140,311.78a9.23,9.23,0,1,1,14.46,11.48Z"/><path d="M110.45,458.55,81,427.24a9.24,9.24,0,0,1,13.45-12.66l14.84,15.77L140,391.63a9.23,9.23,0,1,1,14.46,11.48Z"/><path d="M351.82,541.37l-44.34-47.1a15,15,0,0,1,21.85-20.57l20.56,21.84,44-55.36a15,15,0,1,1,23.49,18.66Z"/><path d="M363,602.09a117.6,117.6,0,1,1,83.15-34.44A116.84,116.84,0,0,1,363,602.09Zm0-205.18a87.59,87.59,0,1,0,87.59,87.59A87.68,87.68,0,0,0,363,396.91Z"/><path d="M255.68,414.22h-75.2a15,15,0,0,0,0,30h60.16A127,127,0,0,1,255.68,414.22Z"/><path d="M238.23,519.92H56.75A26.77,26.77,0,0,1,30,493.17V120.05A26.77,26.77,0,0,1,56.75,93.3H91.84v16.34a20.72,20.72,0,0,0,20.7,20.71H281.41a20.73,20.73,0,0,0,20.7-20.71V93.3h36.45a26.78,26.78,0,0,1,26.75,26.75v238.1a127.85,127.85,0,0,1,30,4.45V120.05A56.82,56.82,0,0,0,338.56,63.3H302.11v-5a20.72,20.72,0,0,0-20.7-20.7h-34a52.64,52.64,0,0,0-100.92,0h-34a20.72,20.72,0,0,0-20.71,20.7v5H56.75A56.82,56.82,0,0,0,0,120.05V493.17a56.82,56.82,0,0,0,56.75,56.76h194A126.54,126.54,0,0,1,238.23,519.92ZM121.84,67.64h52.5v-15a22.63,22.63,0,1,1,45.26,0v15h52.5v32.7H121.84V67.64Z"/></svg>