<svg id="Layer_1" data-name="Layer 1" xmlns="http://www.w3.org/2000/svg" viewBox="0 0 919.17 600"><circle cx="375" cy="513" r="19"/><circle cx="812" cy="513" r="19"/><path d="M918.93,451c0-30-7-111.75-11.93-132-8-33-32-30-56-30H755L748,58s12-11,7-23l-5-12s-71.46.9-127.39,1.5V9.5a12,12,0,0,0-12-12h-5a12,12,0,0,0-12,12V24.79c-14.2.13-25.53.21-31.61.21-30,0-66,21-74,43L426.4,282.93l-24.35-24.58a10.56,10.56,0,0,0-14.92-.08l-.94.93-17.94-18.11a6.15,6.15,0,0,0-2.25-1.43V118h14V38H346V25H294V342H283V227s-16,0-19,21-25.37,233.07-25.37,233.07S183.5,483,132,489,0,513,0,513H283V486h12.28A87,87,0,1,0,465,513h4.54L493,539H712l13.85-13.85A87,87,0,0,0,899,513c0-1.33,0-2.66-.09-4l.09,0S918.93,486,918.93,451ZM377.44,267.86l-.93.93a10.56,10.56,0,0,0-.08,14.92l38.37,38.74.22.2L395.72,390H366V256.31ZM378,561a48,48,0,1,1,48-48A48,48,0,0,1,378,561Zm87-274s36-150,45-180,31-43,56-43H716l4,223ZM812,561a48,48,0,1,1,48-48A48,48,0,0,1,812,561Z"/></svg>