<svg id="Layer_1" data-name="Layer 1" xmlns="http://www.w3.org/2000/svg" viewBox="0 0 538.4 600"><path d="M506.77,517h-2.21c-9.06-18.16-31.62-18.17-31.62-18.17v54.14H459.57V498.79S437,498.8,428,517h-2.21c-9.06-18.16-31.62-18.17-31.62-18.17v54.14H380.75V498.79s-22.56,0-31.62,18.17h-2.21c-9.07-18.16-31.63-18.17-31.63-18.17v54.14H301.93V498.79s-22.56,0-31.63,18.17h-2.21c-9.06-18.16-31.62-18.17-31.62-18.17v54.14H223.1V498.79s-22.56,0-31.62,18.17h-2.21c-9.07-18.16-31.63-18.17-31.63-18.17v54.14H144.28V498.79s-22.56,0-31.63,18.17h-2.21c-9.06-18.16-31.62-18.17-31.62-18.17v54.14H65.46V498.79S42.9,498.8,33.83,517H31.62C22.56,498.8,0,498.79,0,498.79V600H538.4V498.79S515.84,498.8,506.77,517Z"/><path d="M346.27,325.62V269.27h-.75L333.76,221l-10,41.21L269.46,36.37,284.1,46.52l-5.27-17.3,14.39-11-18.08-.33-6-17.08L263.26,18l-18.08.4,14.43,10.9L254.4,46.58l14.53-10.15L214.82,261.62,204.93,221l-11.76,48.26h-1v56.35H181.51v155.8H356.89V325.62Zm-69.55-45.14h19.92v40.34H276.72Zm-35,0h19.92v40.34H241.76V280.48Zm-35,0h19.92v40.34H206.79ZM269.2,460.56a57,57,0,1,1,57-57A57,57,0,0,1,269.2,460.56Zm62.41-139.74H311.69V280.48h19.92Z"/></svg>