<svg id="Layer_1" data-name="Layer 1" xmlns="http://www.w3.org/2000/svg" viewBox="0 0 445.94 604.29"><path id="Shape" d="M15.8,234.28a49.75,49.75,0,0,1,10.39,37.2l-1.82,14.36a31.9,31.9,0,0,0,20.16,33.07l14,5.72a52.07,52.07,0,0,1,28.08,26.9l6,13.34a34.46,34.46,0,0,0,35.33,19.28l15-1.74a57.44,57.44,0,0,1,6.42-.37,54.52,54.52,0,0,1,25.82,6.57c.15.07.27.18.41.25a54.12,54.12,0,0,1,5.51,3.33l12.14,8.71a35.63,35.63,0,0,0,41,0l12.14-8.7a54.41,54.41,0,0,1,38.16-9.78l15,1.73a34.37,34.37,0,0,0,35.32-19.27l6-13.34a52.14,52.14,0,0,1,28.09-26.91l14-5.71A31.9,31.9,0,0,0,403,285.84l-1.81-14.36a49.7,49.7,0,0,1,10.4-37.2l9.09-11.6a30.3,30.3,0,0,0,0-38l-9.1-11.61a49.72,49.72,0,0,1-10.39-37.21L403,121.55a31.9,31.9,0,0,0-20.16-33.08l-14-5.72a52.15,52.15,0,0,1-28.08-26.89l-6-13.35a34.34,34.34,0,0,0-35.32-19.27l-15,1.73a54.43,54.43,0,0,1-38.16-9.78l-12.14-8.7a35.62,35.62,0,0,0-41,0l-12.14,8.7A54.54,54.54,0,0,1,142.9,25l-15-1.74A34.33,34.33,0,0,0,92.56,42.51l-6,13.34a52.19,52.19,0,0,1-28.09,26.9l-14,5.72a31.9,31.9,0,0,0-20.15,33.07l1.82,14.35A49.78,49.78,0,0,1,15.8,173.1L6.69,184.7a30.3,30.3,0,0,0,0,38Zm197.9-176A145.68,145.68,0,1,1,68,203.92,145.67,145.67,0,0,1,213.7,58.25Z"/><path d="M213.7,77.67A126.25,126.25,0,1,0,340,203.92,126.24,126.24,0,0,0,213.7,77.67Zm6,166.77-22.93,22.93,0,0,0,0-22.93-22.93,0,0-36.35-36.35,22.93-22.94,36.36,36.36,83.7-83.71,22.94,22.94-83.71,83.7Z"/><path d="M68.06,398.57l-65.91,148L97.83,500.7l34,103.59,68.88-154.68A232.27,232.27,0,0,1,68.06,398.57Z"/><path d="M379.38,398.57l65.9,148L349.61,500.7l-34,103.59L246.77,449.61A232.3,232.3,0,0,0,379.38,398.57Z"/></svg>