<svg id="Layer_1" data-name="Layer 1" xmlns="http://www.w3.org/2000/svg" viewBox="0 0 511.93 352.59"><path d="M395.4,116.86c-33.25,0-49.43,27-49.43,60.2s16.18,60.2,49.43,60.2H511.93V116.86Zm-4.07,78.87A18.67,18.67,0,1,1,410,177.06,18.67,18.67,0,0,1,391.33,195.73Z"/><path d="M186,175.93h-6.67V106.76a27.86,27.86,0,0,0-27.84-27.83h-87a27.86,27.86,0,0,0-27.83,27.83v69.17H30.83A30.83,30.83,0,0,0,0,206.76v115a30.82,30.82,0,0,0,30.83,30.82H186a30.83,30.83,0,0,0,30.83-30.83v-115A30.83,30.83,0,0,0,186,175.93ZM58.67,106.76a5.84,5.84,0,0,1,5.83-5.83h87a5.84,5.84,0,0,1,5.84,5.83v69.17H58.66V106.76ZM130,303.26H87.33l9.31-38.39a21.34,21.34,0,1,1,23.49.36Z"/><path d="M387.44,98.59h69.49V66a29.28,29.28,0,0,0-29.25-29.25l-322.43-1a29.21,29.21,0,0,0-24.4,13.19h70.64a57.89,57.89,0,0,1,57.84,57.83v43.82a60.94,60.94,0,0,1,37.5,56.17V317.29l180.85.56a29.28,29.28,0,0,0,29.25-29.24V255.53H387.44c-41.12,0-61.14-35.13-61.14-78.47S346.32,98.59,387.44,98.59Z"/><path d="M470.93,288.6a43.3,43.3,0,0,1-43.25,43.25h0l-181.58-.56a60.6,60.6,0,0,1-7.67,21.3H448.63a43.32,43.32,0,0,0,43.31-43.31V255.53h-21V288.6Z"/><path d="M448.63,0H81.33A43.32,43.32,0,0,0,38,43.31V55.37A57.43,57.43,0,0,1,64.5,48.93h.63a43.3,43.3,0,0,1,40.14-27.19l322.43,1A43.29,43.29,0,0,1,470.93,66v32.6h21V43.31A43.31,43.31,0,0,0,448.63,0Z"/><path d="M186,175.93h-6.67V106.76a27.86,27.86,0,0,0-27.84-27.83h-87a27.86,27.86,0,0,0-27.83,27.83v69.17H30.83A30.83,30.83,0,0,0,0,206.76v115a30.82,30.82,0,0,0,30.83,30.82H186a30.83,30.83,0,0,0,30.83-30.83v-115A30.83,30.83,0,0,0,186,175.93ZM58.67,106.76a5.84,5.84,0,0,1,5.83-5.83h87a5.84,5.84,0,0,1,5.84,5.83v69.17H58.66V106.76ZM130,303.26H87.33l9.31-38.39a21.34,21.34,0,1,1,23.49.36Z"/></svg>