<svg id="Layer_1" data-name="Layer 1" xmlns="http://www.w3.org/2000/svg" viewBox="0 0 1201.97 600"><polygon points="141.66 431.18 397.17 431.18 403.9 439.07 806.65 439.07 806.65 0.77 0 0.77 0 439.07 134.57 439.07 141.66 431.18"/><circle cx="191.15" cy="528.5" r="34.03"/><path d="M312,457.19H228.16A80.66,80.66,0,0,1,270,512.5,80.67,80.67,0,0,1,312,457.19Z"/><path d="M145.26,525a46,46,0,0,1,91.79,0h25.57a71.55,71.55,0,0,0-142.93,0Z"/><path d="M237,532a46,46,0,0,1-91.78,0H119.69a71.55,71.55,0,0,0,142.93,0Z"/><circle cx="346.49" cy="528.5" r="34.03"/><path d="M300.6,525a46,46,0,0,1,91.78,0H418A71.56,71.56,0,0,0,275,525Z"/><path d="M392.38,532a46,46,0,0,1-91.78,0H275A71.56,71.56,0,0,0,418,532Z"/><circle cx="934.2" cy="528.5" r="34.03"/><path d="M888.31,525a46,46,0,0,1,91.78,0h25.58a71.56,71.56,0,0,0-142.94,0Z"/><path d="M980.09,532a46,46,0,0,1-91.78,0H862.73a71.56,71.56,0,0,0,142.94,0Z"/><path d="M1186,208c-8.85,0-16,12.1-16,27,0,12.06,4.69,22.27,11.15,25.75v33.67h-48.43l-69.8-147c-10-25-29.53-35.53-52.35-35.53H823.08a4.61,4.61,0,0,0-4.61,4.61V445.58a4.61,4.61,0,0,0,4.61,4.61h.08v8.39c-4-.32-7.9-1.17-10.29-3a15.65,15.65,0,0,1-6.22-12.07h-399l38.2,44.78v46.34h-8V491.2l-44.38-52H145.23l-3.62,4v.26h-.23l-43,47.79v43.33h-8v-46.4l40.2-44.72H13.4v61.67H36.89V460h25.7v45.15L83.88,536h27.46V500.46l44.79-49.82h230l42.5,49.82V536H828.32l2.27-20.1c1.3-7.47,3.35-15.6,6.54-21.41,7.55-13.76,19.81-24.77,19.81-24.77V449l34.94-1.2a92.87,92.87,0,0,0-50.54,81.58c0,.09,0,.18,0,.27s0,.11,0,.17c0,.22,0,.43,0,.65h.08a6.9,6.9,0,0,0,13.71,0h.22a78.86,78.86,0,0,1,157.49-6v6.87a4.6,4.6,0,0,0,4.6,4.6h154.92a4.61,4.61,0,0,0,4.61-4.6V469a4.61,4.61,0,0,0-4.61-4.61h-10.19c.53-37.23-.44-108.77-.44-108.77l-24-50.54h48.63a6.12,6.12,0,0,0,6.12-6.12V259.69c5.6-4.21,9.51-13.67,9.51-24.68C1202,220.09,1194.8,208,1186,208ZM912.55,346.1H870.73a8,8,0,0,1,0-16h41.82a8,8,0,0,1,0,16Zm-54.36-48.54V158H998.81c16,0,29.4,22,48,51.54,23,36.53,30.53,88.08,30.53,88.08H858.19Z"/></svg>