<?xml version="1.0" encoding="utf-8"?>
<!-- Generator: Adobe Illustrator 15.0.0, SVG Export Plug-In . SVG Version: 6.00 Build 0)  -->
<!DOCTYPE svg PUBLIC "-//W3C//DTD SVG 1.1//EN" "http://www.w3.org/Graphics/SVG/1.1/DTD/svg11.dtd">
<svg version="1.1" id="Layer_1" xmlns="http://www.w3.org/2000/svg" xmlns:xlink="http://www.w3.org/1999/xlink" x="0px" y="0px"
	 width="475.274px" height="74.176px" viewBox="0 0 475.274 74.176" enable-background="new 0 0 475.274 74.176"
	 xml:space="preserve">
<g>
	<path fill="#333333" d="M7.64,6.37C7.016,5.444,6.634,4.946,6.618,4.926l-0.766,0.59C5.856,5.521,6.234,6.012,6.839,6.91L7.64,6.37
		z"/>
	<path fill="#333333" d="M16.983,39.924c0.034-1.153,0.024-2.331-0.029-3.499l0.965-0.044c0.054,1.193,0.064,2.394,0.03,3.572
		L16.983,39.924z M17.339,45.881l-0.951-0.172c0.208-1.148,0.363-2.313,0.463-3.46l0.963,0.084
		C17.712,43.51,17.552,44.703,17.339,45.881z M16.791,34.096c-0.108-1.148-0.259-2.316-0.449-3.474l0.954-0.156
		c0.194,1.179,0.347,2.37,0.457,3.54L16.791,34.096z M15.852,51.65l-0.917-0.308c0.373-1.109,0.7-2.239,0.971-3.355l0.939,0.228
		C16.567,49.358,16.233,50.515,15.852,51.65z M15.913,28.326c-0.236-1.129-0.515-2.276-0.827-3.407l0.931-0.257
		c0.318,1.151,0.601,2.317,0.841,3.466L15.913,28.326z M13.583,57.155l-0.867-0.425c0.516-1.053,0.993-2.128,1.417-3.198
		l0.898,0.356C14.598,54.981,14.111,56.081,13.583,57.155z M14.419,22.678c-0.352-1.102-0.743-2.216-1.163-3.312l0.902-0.346
		c0.426,1.113,0.824,2.244,1.182,3.363L14.419,22.678z M10.643,62.328l-0.81-0.527c0.637-0.979,1.243-1.988,1.804-3.001l0.846,0.468
		C11.912,60.3,11.292,61.33,10.643,62.328z M12.378,17.197c-0.455-1.067-0.947-2.141-1.464-3.192l0.867-0.426
		c0.524,1.066,1.024,2.156,1.485,3.239L12.378,17.197z M9.845,11.923c-0.56-1.043-1.147-2.068-1.746-3.047l0.825-0.504
		c0.607,0.994,1.204,2.035,1.772,3.094L9.845,11.923z"/>
	<path fill="#333333" d="M9.301,64.289l-0.785-0.564c-0.336,0.467-0.682,0.932-1.03,1.38l0.764,0.591
		C8.605,65.238,8.958,64.765,9.301,64.289z"/>
	<g>
		<polygon fill="#333333" points="4.499,69.25 11.438,65.713 8.09,65.085 6.976,61.866 		"/>
	</g>
</g>
</svg>
