<svg xmlns="http://www.w3.org/2000/svg" viewBox="0 0 1403.66 470.39"><defs><style>.cls-1{fill:#515254;}.cls-2{fill:#ec1c26;}.cls-3{fill:none;stroke:#ec1c26;stroke-miterlimit:10;stroke-width:16px;}</style></defs><path class="cls-1" d="M75.79,147.44V142.9c0-9.4-8.61-11.43-19.26-11.43-17.85,0-19.57,5.64-19.57,22.39v18.32c0,17.54.78,24.9,19.57,24.9,13,0,19.26-.94,19.26-14.72v-3.45h32.26v3.45c0,33-11.43,42-48.07,42C28,224.32,4.7,222.13,4.7,179.23V148.85C4.7,110,25.53,104.22,60,104.22c31.16,0,48.07,8.61,48.07,38.68v4.54Z"/><path class="cls-1" d="M181.18,222.76H149.86v-90.2H118.23V105.32h94.58v27.24H181.18Z"/><path class="cls-1" d="M257.43,222.76H226.11V105.32h59c29.12,0,40.08,10.8,40.08,41.49,0,33-7.36,43.38-40.08,43.38H257.43Zm0-58.25h21.45c11.9,0,14.1-2.19,14.1-17.38,0-12.06-1.88-16.13-14.1-16.13H257.43Z"/><path class="cls-1" d="M339.32,180.64v-33.2c0-36.17,22.55-43.22,54.34-43.22s54.33,7,54.33,43.22v33.2c0,36.17-22.54,43.68-54.33,43.68S339.32,216.81,339.32,180.64Zm76.42-3.45V150.73c0-17.38-5.8-19.26-22.08-19.26s-22.08,1.72-22.08,19.26v26.46c0,17.54,5.79,19.89,22.08,19.89S415.74,194.73,415.74,177.19Z"/><path class="cls-1" d="M495,182.67h1.09l36.65-77.35h41.18V222.76H544.14V145.4H543l-35.23,77.36H465.22V105.32H495Zm21.92-99.43c10.33,0,14.25-2.19,14.25-10.49h13.15c0,21.14-10.49,24-27.4,24-17.07,0-27.4-2.82-27.4-24h13.15C502.64,81.05,506.56,83.24,516.89,83.24Z"/><path class="cls-1" d="M679.89,129.75H625.56v21h29.12c24,0,36.17,9.71,36.17,36s-12.52,36-36.17,36H594.24V105.32h85.65Zm-54.33,68.58h21.76c8.93,0,12.22-2.19,12.22-11.27,0-9.71-3.29-11.9-12.22-11.9H625.56Z"/><path class="cls-1" d="M737,202.56l-5.79,20.2H698.68l35.23-117.44h47.6l35.71,117.44h-32l-6.1-20.2Zm21.3-73.75H758l-14.25,51h29Z"/><path class="cls-1" d="M864,152.29h14.88c9.71,0,13.62-1.87,13.62-11.27,0-7.05-2.35-11.12-18.48-11.12-12.52,0-17.69,2.19-17.69,12.06H826.45v-4.85c0-26,17.38-32.89,48.07-32.89s49.33,6.58,49.33,31.16c0,14.88-3,24.59-18.48,27.09v1.25c15.19,1.41,20.36,10.34,20.36,24.75,0,27.24-8.14,35.85-50.89,35.85-33,0-49.8-5.63-49.8-39.14h30.07c0,12.21,4.38,13.46,19.73,13.46,14.72,0,19.57-2.66,19.57-12.52,0-8.46-3.6-12.06-13.78-12.06H864Z"/><path class="cls-1" d="M971.92,202.56l-5.8,20.2H933.55l35.24-117.44h47.6l35.7,117.44h-31.94l-6.11-20.2Zm21.29-73.75h-.31l-14.25,51h29Z"/><path class="cls-1" d="M1157.46,152.34l17.13,55.32h.58l-1.83-55.32h19.24V224.5h-29.92l-17.13-55.32H1145l1.92,55.32h-19.24V152.34Zm71.48,39.26c0,12-1.73,15.77-15.1,15.77s-15.1-3.75-15.1-15.77,1.73-15.69,15.1-15.69S1228.94,179.57,1228.94,191.6Zm0,20.68v7.41h-30.2v-7.41Zm-15.1-29c-4,0-5.1,1.06-5.1,8.28s1.06,8.37,5.1,8.37,5.1-1.16,5.1-8.37-1-8.28-5-8.28Z"/><path class="cls-1" d="M1340.38,309.89h-50.65V142.12l-35.85,32.7L1233,151.17l50.45-41.76h56.93Z"/><path class="cls-2" d="M23.62,275v-1.51c0-3.12-2.87-3.8-6.4-3.8-5.93,0-6.5,1.87-6.5,7.44v6.08c0,5.83.26,8.28,6.5,8.28,4.32,0,6.4-.32,6.4-4.89v-1.15H34.33v1.15c0,11-3.8,13.94-16,13.94-10.61,0-18.36-.73-18.36-15v-10.1c0-12.9,6.92-14.82,18.36-14.82,10.35,0,16,2.86,16,12.85V275Z"/><path class="cls-2" d="M58.62,300H48.22V270H37.71v-9H69.13v9H58.62Z"/><path class="cls-2" d="M84,300H73.55V261H93.16c9.67,0,13.32,3.59,13.32,13.79,0,11-2.45,14.41-13.32,14.41H84Zm0-19.35h7.13c4,0,4.68-.73,4.68-5.78,0-4-.62-5.36-4.68-5.36H84Z"/><path class="cls-2" d="M111.15,286V275c0-12,7.49-14.36,18-14.36S147.25,263,147.25,275v11c0,12-7.49,14.52-18.05,14.52S111.15,298,111.15,286Zm25.39-1.14v-8.79c0-5.78-1.93-6.4-7.34-6.4s-7.33.57-7.33,6.4v8.79c0,5.82,1.92,6.61,7.33,6.61S136.54,290.67,136.54,284.85Z"/><path class="cls-2" d="M162.86,286.67h.36L175.39,261h13.68v39h-9.88v-25.7h-.36L167.12,300H153V261h9.89Zm7.28-33c3.43,0,4.73-.73,4.73-3.49h4.37c0,7-3.48,8-9.1,8s-9.1-.93-9.1-8h4.37C165.41,252.91,166.71,253.64,170.14,253.64Z"/><path class="cls-2" d="M212.32,261l7.44,24.5h.36L227.2,261h16.9v39H233.7l1-29.91-.47-.11-9.78,30h-9l-9.84-30-.46.11,1,29.91H195.83V261Z"/><path class="cls-2" d="M260.49,293.28,258.56,300H247.74l11.71-39h15.81l11.86,39H276.51l-2-6.71Zm7.07-24.5h-.1l-4.74,17h9.63Z"/><path class="cls-2" d="M307.77,300H297.36V270h-10.5v-9h31.42v9H307.77Z"/><path class="cls-2" d="M333.1,276.63h16.64v7.23H333.1v7.6h18.1V300H322.69V261h28.15v8.53H333.1Z"/><path class="cls-2" d="M368.42,300H358V261h19.61c9.68,0,13.32,3.59,13.32,13.79,0,11-2.45,14.41-13.32,14.41h-9.2Zm0-19.35h7.12c3.95,0,4.68-.73,4.68-5.78,0-4-.62-5.36-4.68-5.36h-7.12Z"/><path class="cls-2" d="M406.54,286.67h.37L419.08,261h13.68v39h-9.89v-25.7h-.36L410.81,300H396.66V261h9.88Z"/><path class="cls-2" d="M449.14,293.28,447.22,300H436.4l11.7-39h15.81l11.86,39H465.16l-2-6.71Zm7.07-24.5h-.1l-4.73,17H461Z"/><path class="cls-2" d="M515.15,261v39H504.74V270H493.46v16.39c0,8.53-3.7,14-11.6,14a25.2,25.2,0,0,1-5.31-.47v-8.42a9.4,9.4,0,0,0,3.17.36c2.87,0,3.85-1.45,3.85-5.3V261Z"/><path class="cls-2" d="M532.31,276.06H542c8,0,12,3.22,12,12s-4.16,12-12,12H521.91V261h10.4Zm0,15.81h7.23c3,0,4.06-.73,4.06-3.74,0-3.23-1.09-4-4.06-4h-7.23Zm38,8.12h-10.4V261h10.4Z"/><path class="cls-2" d="M630.15,261v39h-10.4V270H606.17v30h-10.4V261Z"/><path class="cls-2" d="M635.87,286V275c0-12,7.49-14.36,18-14.36S672,263,672,275v11c0,12-7.49,14.52-18.05,14.52S635.87,298,635.87,286Zm25.38-1.14v-8.79c0-5.78-1.92-6.4-7.33-6.4s-7.34.57-7.34,6.4v8.79c0,5.82,1.93,6.61,7.34,6.61S661.25,290.67,661.25,284.85Z"/><path class="cls-2" d="M695.37,286V275c0-12,7.49-14.36,18-14.36S731.47,263,731.47,275v11c0,12-7.49,14.52-18.05,14.52S695.37,298,695.37,286Zm25.39-1.14v-8.79c0-5.78-1.93-6.4-7.34-6.4s-7.33.57-7.33,6.4v8.79c0,5.82,1.92,6.61,7.33,6.61S720.76,290.67,720.76,284.85Z"/><path class="cls-2" d="M771.57,261v39h-10.4V270H747.59v30h-10.4V261Z"/><path class="cls-2" d="M796.9,300H786.5V270H776v-9h31.42v9H796.9Z"/><path class="cls-2" d="M810.79,286V275c0-12,7.49-14.36,18.05-14.36s18,2.34,18,14.36v11c0,12-7.49,14.52-18,14.52S810.79,298,810.79,286Zm25.38-1.14v-8.79c0-5.78-1.92-6.4-7.33-6.4s-7.34.57-7.34,6.4v8.79c0,5.82,1.93,6.61,7.34,6.61S836.17,290.67,836.17,284.85Z"/><path class="cls-2" d="M852.61,261H873.1c7.75,0,12.33,1.46,12.33,10,0,4.94-1,8.17-6.14,9v.42c5.78.36,6.77,3.85,6.77,8.73,0,9.58-4.48,10.88-12.75,10.88h-20.7ZM863,276.58h7.49c3.64,0,4.53-.63,4.53-3.75,0-2.34-.52-3.33-3.28-3.33H863Zm0,14.88h7.86c3.38,0,4.78-.79,4.78-4s-1.19-3.69-4.58-3.69H863Z"/><path class="cls-2" d="M902.18,276.06h9.67c8,0,12,3.22,12,12s-4.16,12-12,12H891.77V261h10.41Zm0,15.81h7.23c3,0,4.06-.73,4.06-3.74,0-3.23-1.1-4-4.06-4h-7.23Zm38,8.12h-10.4V261h10.4Z"/><path class="cls-2" d="M963.4,261l7.44,24.5h.36l7.08-24.5h16.9v39h-10.4l1-29.91-.47-.11-9.78,30h-9l-9.83-30-.47.11,1,29.91h-10.4V261Z"/><path class="cls-2" d="M1031.07,290.94h13.58V261h10.4v30h3.22v17.94h-9.88V300h-27.72V261h10.4Z"/><path class="cls-2" d="M1073.2,276.63h16.65v7.23H1073.2v7.6h18.1V300h-28.5V261h28.14v8.53H1073.2Z"/><path class="cls-2" d="M1108.52,275.64h13.57V261h10.41v39h-10.41v-15.3h-13.57V300h-10.41V261h10.41Z"/><path class="cls-2" d="M1148.88,293.28,1147,300h-10.83l11.71-39h15.81l11.86,39H1164.9l-2-6.71Zm7.07-24.5h-.1l-4.73,17h9.62Z"/><path class="cls-2" d="M1195.64,261l7.44,24.5h.36l7.08-24.5h16.9v39H1217l1-29.91-.47-.11-9.78,30h-9L1189,270l-.47.11,1,29.91h-10.4V261Z"/><polygon class="cls-2" points="1244.7 437.4 1139.57 346.94 1093.66 346.94 1093.66 330.94 1145.5 330.94 1244.62 416.22 1342.23 330.94 1387.66 330.94 1387.66 88.94 1101.66 88.94 1101.66 224.19 1085.66 224.19 1085.66 72.94 1403.66 72.94 1403.66 346.94 1348.23 346.94 1244.7 437.4"/><polygon class="cls-2" points="1243.64 470.39 1129.31 369.88 1093.66 369.88 1093.66 353.88 1135.34 353.88 1243.68 449.11 1352.66 353.88 1404.41 353.88 1404.41 369.88 1358.66 369.88 1243.64 470.39"/><rect class="cls-3" x="1093.66" y="44.47" width="100.67" height="36.47"/><path class="cls-2" d="M1303,88.94H1186.33V36.47H1303Zm-100.66-16H1287V52.47h-84.66Z"/><path class="cls-2" d="M1403.66,88.94H1287V36.47h116.67ZM1303,72.94h84.67V52.47H1303Z"/><path class="cls-2" d="M1253.3,52.47H1136V0H1253.3ZM1152,36.47h85.32V16H1152Z"/><path class="cls-2" d="M1354.64,52.47H1237.33V0h117.31Zm-101.31-16h85.31V16h-85.31Z"/></svg>