<svg id="Layer_1" data-name="Layer 1" xmlns="http://www.w3.org/2000/svg" viewBox="0 0 325.27 325.27"><defs><style>.cls-1{fill:#4a4b4c;}.cls-2{fill:#ec1c26;}</style></defs><path class="cls-1" d="M303,220.79c-3.92-.72-7.89-1.4-11.88-2-2.89-.46-5.79-.91-8.7-1.33a663.31,663.31,0,0,0-170.15-2.2C69.76,220.21,31.54,229,0,241.07c62.56-39,178-58.3,291.13-48.74q17.13,1.46,34.14,3.79Z"/><path class="cls-2" d="M307.73,186.78c-71.9,0-132.09-115.73-147.59-112.87-15.5-2.86-75.69,112.87-147.59,112.87,71.9,0,132.09-33.38,147.59-78.15C175.64,153.4,235.83,186.78,307.73,186.78Z"/></svg>