<svg id="Layer_1" data-name="Layer 1" xmlns="http://www.w3.org/2000/svg" viewBox="0 0 1405.41 470.39"><defs><style>.cls-1{fill:#515254;}.cls-2{fill:#ec1c26;}.cls-3{fill:none;stroke:#ec1c26;stroke-miterlimit:10;stroke-width:16px;}</style></defs><title>logo-2</title><path class="cls-1" d="M76.79,147.44V142.9c0-9.4-8.61-11.43-19.26-11.43-17.85,0-19.57,5.64-19.57,22.39v18.32c0,17.54.78,24.9,19.57,24.9,13,0,19.26-.94,19.26-14.72v-3.45h32.26v3.45c0,33-11.43,42-48.07,42C29,224.32,5.7,222.13,5.7,179.23V148.85C5.7,110,26.53,104.22,61,104.22c31.16,0,48.07,8.61,48.07,38.68v4.54Z"/><path class="cls-1" d="M182.17,222.76H150.85v-90.2H119.22V105.32H213.8v27.24H182.17Z"/><path class="cls-1" d="M258.43,222.76H227.11V105.32h59c29.13,0,40.09,10.8,40.09,41.49,0,33-7.36,43.38-40.09,43.38H258.43Zm0-58.25h21.45c11.9,0,14.09-2.19,14.09-17.38,0-12.06-1.88-16.13-14.09-16.13H258.43Z"/><path class="cls-1" d="M340.32,180.64v-33.2c0-36.17,22.55-43.22,54.34-43.22s54.33,7,54.33,43.22v33.2c0,36.17-22.55,43.68-54.33,43.68S340.32,216.81,340.32,180.64Zm76.41-3.45V150.73c0-17.38-5.79-19.26-22.07-19.26s-22.08,1.72-22.08,19.26v26.46c0,17.54,5.79,19.89,22.08,19.89S416.73,194.73,416.73,177.19Z"/><path class="cls-1" d="M496,182.67h1.1l36.64-77.35h41.18V222.76H545.13V145.4H544L508.8,222.76H466.21V105.32H496Zm21.93-99.43c10.33,0,14.25-2.19,14.25-10.49h13.15c0,21.14-10.49,24-27.4,24-17.07,0-27.41-2.82-27.41-24h13.16C503.64,81.05,507.55,83.24,517.89,83.24Z"/><path class="cls-1" d="M680.89,129.75H626.55v21h29.13c24,0,36.17,9.71,36.17,36s-12.53,36-36.17,36H595.24V105.32h85.65Zm-54.34,68.58h21.77c8.92,0,12.21-2.19,12.21-11.27,0-9.71-3.29-11.9-12.21-11.9H626.55Z"/><path class="cls-1" d="M738,202.56l-5.79,20.2H699.68l35.23-117.44h47.6l35.7,117.44H786.27l-6.11-20.2Zm21.3-73.75H759l-14.25,51h29Z"/><path class="cls-1" d="M865,152.29H879.9c9.71,0,13.63-1.87,13.63-11.27,0-7.05-2.35-11.12-18.48-11.12-12.53,0-17.69,2.19-17.69,12.06H827.45v-4.85c0-26,17.38-32.89,48.07-32.89,30.53,0,49.33,6.58,49.33,31.16,0,14.88-3,24.59-18.48,27.09v1.25c15.19,1.41,20.35,10.34,20.35,24.75,0,27.24-8.14,35.85-50.89,35.85-33,0-49.79-5.63-49.79-39.14H856.1c0,12.21,4.39,13.46,19.73,13.46,14.72,0,19.58-2.66,19.58-12.52,0-8.46-3.6-12.06-13.78-12.06H865Z"/><path class="cls-1" d="M972.91,202.56l-5.79,20.2H934.55l35.23-117.44h47.6l35.7,117.44h-31.94l-6.1-20.2Zm21.3-73.75h-.31l-14.25,51h29Z"/><path class="cls-1" d="M1158.46,152.34l17.12,55.32h.58l-1.83-55.32h19.25V224.5h-29.93l-17.12-55.32H1146l1.93,55.32h-19.25V152.34Zm71.48,39.26c0,12-1.73,15.77-15.1,15.77s-15.11-3.75-15.11-15.77,1.73-15.69,15.11-15.69S1229.94,179.57,1229.94,191.6Zm0,20.68v7.41h-30.21v-7.41Zm-15.1-29c-4,0-5.1,1.06-5.1,8.28s1.06,8.37,5.1,8.37,5.1-1.16,5.1-8.37-1-8.28-5-8.28Z"/><path class="cls-1" d="M1341.38,309.89h-50.66V142.12l-35.84,32.7L1234,151.17l50.44-41.76h56.94Z"/><polygon class="cls-2" points="1245.7 437.4 1140.56 346.94 1094.66 346.94 1094.66 330.94 1146.5 330.94 1245.62 416.22 1343.22 330.94 1388.66 330.94 1388.66 88.94 1102.66 88.94 1102.66 224.19 1086.66 224.19 1086.66 72.94 1404.66 72.94 1404.66 346.94 1349.23 346.94 1245.7 437.4"/><polygon class="cls-2" points="1244.64 470.39 1130.31 369.88 1094.66 369.88 1094.66 353.88 1136.34 353.88 1244.67 449.11 1353.65 353.88 1405.41 353.88 1405.41 369.88 1359.66 369.88 1244.64 470.39"/><rect class="cls-3" x="1094.66" y="44.47" width="100.67" height="36.47"/><path class="cls-2" d="M1304,88.94H1187.32V36.47H1304Zm-100.67-16H1288V52.47h-84.67Z"/><path class="cls-2" d="M1404.66,88.94H1288V36.47h116.67ZM1304,72.94h84.67V52.47H1304Z"/><path class="cls-2" d="M1254.29,52.47H1137V0h117.31ZM1153,36.47h85.31V16H1153Z"/><path class="cls-2" d="M1355.64,52.47H1238.33V0h117.31Zm-101.31-16h85.31V16h-85.31Z"/><path class="cls-2" d="M34.2,285.81v2.4c0,9.4-4.43,12.73-16.94,12.73C3.82,300.94,0,296.63,0,279.26c0-14.1,3.5-20.16,17-20.16s16.33,4.75,17,14.15H26.33c-.38-6.34-2.19-7.49-9.34-7.49-7.32,0-9,2.13-9,14.42,0,11.75,1.85,14.1,9.17,14.1,7.16,0,9.34-1.31,9.34-5.9v-2.57Z"/><path class="cls-2" d="M57.47,300.45H49.6V266.2h-12v-6.66h31.9v6.66h-12Z"/><path class="cls-2" d="M81.83,300.45H74V259.54H91.39c10,0,15.29,2.24,15.29,13.43s-3.82,14-14.58,14H81.83Zm0-20.1h9.5c5.36,0,7.38-1.26,7.38-6.67,0-5.9-2-7.48-7.38-7.48h-9.5Z"/><path class="cls-2" d="M130.45,259.1c13.76,0,17.53,4.37,17.53,20,0,18.19-3.82,21.79-17.53,21.79-14.75,0-17.49-3.66-17.49-21.79C113,263.47,116.57,259.1,130.45,259.1Zm0,35.18c8.19,0,9.55-1.64,9.55-14.26,0-13.22-1.63-14.26-9.55-14.26-8.2,0-9.51,1-9.51,14.26C120.94,292.91,122.25,294.28,130.45,294.28Z"/><path class="cls-2" d="M190.64,259.54v40.91h-7.86v-27a41.64,41.64,0,0,1,.6-7.22h-.06l-17.26,34.2H154.81V259.54h7.86v26.87a42.07,42.07,0,0,1-.6,7.27h.11l17.21-34.14Zm-28-10.27h5c0,2.51.81,3.22,4.15,3.22,3.66,0,4.48-.71,4.48-3.22h4.91c0,6.28-4,7.86-9.39,7.86S162.67,255.55,162.67,249.27Z"/><path class="cls-2" d="M211,259.54l11.09,30.37h.22l10.87-30.37h13.38v40.91h-7.86V266l-12.89,34.47h-7.05L205.88,266.2v34.25H198V259.54Z"/><path class="cls-2" d="M262,292.64l-2.56,7.81h-8.14l13.6-40.91H276.4l13.88,40.91h-8l-2.62-7.81Zm8.8-27.1-7,21.25h14.09Z"/><path class="cls-2" d="M309.56,300.45H301.7V266.2h-12v-6.66h31.9v6.66h-12Z"/><path class="cls-2" d="M333.92,276.47H353V283H333.92v11H354v6.5H326.06V259.54H354V266H333.92Z"/><path class="cls-2" d="M368.12,300.45h-7.87V259.54h17.43c10,0,15.29,2.24,15.29,13.43s-3.82,14-14.58,14H368.12Zm0-20.1h9.5c5.36,0,7.38-1.26,7.38-6.67,0-5.9-2-7.48-7.38-7.48h-9.5Z"/><path class="cls-2" d="M435.64,259.54v40.91h-7.87v-27a41.64,41.64,0,0,1,.6-7.22h-.05l-17.27,34.2H399.8V259.54h7.87v26.87a43.11,43.11,0,0,1-.6,7.27h.11l17.2-34.14Z"/><path class="cls-2" d="M451.09,292.64l-2.56,7.81h-8.14L454,259.54h11.53l13.87,40.91h-8l-2.63-7.81Zm8.8-27.1-7,21.25H467Z"/><path class="cls-2" d="M520,259.54v40.91h-7.87V266.2H496.54v23.43c0,5.91-2.56,11.31-10.32,11.31a21.62,21.62,0,0,1-4-.32v-6.51a18.3,18.3,0,0,0,2.4.17c3.45,0,4.21-1.8,4.21-4v-30.7Z"/><path class="cls-2" d="M535.22,276.47H548c7.64,0,11.85,3.71,11.85,11.58s-4.26,12.4-11.75,12.4h-20.7V259.54h7.87Zm0,17.48h10.1c4.76,0,6.61-1.09,6.61-5.84,0-4.32-2-5.14-6.61-5.14h-10.1Zm39.38,6.5h-7.86V259.54h7.86Z"/><path class="cls-2" d="M631.63,259.54v40.91h-7.86V266.2H604.7v34.25h-7.87V259.54Z"/><path class="cls-2" d="M655.94,259.1c13.77,0,17.54,4.37,17.54,20,0,18.19-3.83,21.79-17.54,21.79-14.75,0-17.48-3.66-17.48-21.79C638.46,263.47,642.06,259.1,655.94,259.1Zm0,35.18c8.19,0,9.56-1.64,9.56-14.26,0-13.22-1.64-14.26-9.56-14.26-8.19,0-9.5,1-9.5,14.26C646.44,292.91,647.75,294.28,655.94,294.28Z"/><path class="cls-2" d="M712.09,259.1c13.77,0,17.54,4.37,17.54,20,0,18.19-3.82,21.79-17.54,21.79-14.74,0-17.48-3.66-17.48-21.79C694.61,263.47,698.22,259.1,712.09,259.1Zm0,35.18c8.2,0,9.56-1.64,9.56-14.26,0-13.22-1.63-14.26-9.56-14.26-8.19,0-9.5,1-9.5,14.26C702.59,292.91,703.9,294.28,712.09,294.28Z"/><path class="cls-2" d="M771.25,259.54v40.91h-7.86V266.2H744.32v34.25h-7.86V259.54Z"/><path class="cls-2" d="M795.62,300.45h-7.87V266.2h-12v-6.66h31.9v6.66h-12Z"/><path class="cls-2" d="M829.05,259.1c13.76,0,17.53,4.37,17.53,20,0,18.19-3.82,21.79-17.53,21.79-14.75,0-17.48-3.66-17.48-21.79C811.57,263.47,815.17,259.1,829.05,259.1Zm0,35.18c8.19,0,9.56-1.64,9.56-14.26,0-13.22-1.64-14.26-9.56-14.26-8.2,0-9.51,1-9.51,14.26C819.54,292.91,820.85,294.28,829.05,294.28Z"/><path class="cls-2" d="M853.41,259.54h21c7.32,0,11.41,3,11.41,10.27,0,4.75-1.69,8.24-5.84,9.39v.27c4.37.71,6.77,4,6.77,9.24,0,7.21-3.77,11.74-11.69,11.74H853.41Zm7.87,17.2h9.83c5,0,6.83-.87,6.83-5.79,0-3.88-1.7-4.91-5.52-4.91H861.28Zm0,17.21h9.83c5.19,0,7.76-1.31,7.76-5.84s-1.81-5.52-6.34-5.52H861.28Z"/><path class="cls-2" d="M901.43,276.47h12.72c7.65,0,11.86,3.71,11.86,11.58s-4.26,12.4-11.75,12.4h-20.7V259.54h7.87Zm0,17.48h10.1c4.75,0,6.61-1.09,6.61-5.84,0-4.32-2-5.14-6.61-5.14h-10.1Zm39.38,6.5H933V259.54h7.86Z"/><path class="cls-2" d="M961.13,259.54l11.09,30.37h.22l10.87-30.37h13.38v40.91h-7.86V266l-12.89,34.47h-7.05L956.05,266.2v34.25h-7.86V259.54Z"/><path class="cls-2" d="M1045.91,293.79V259.54h7.87v34.25h3.66V309.9h-7.32v-9.45h-31.2V259.54h7.87v34.25Z"/><path class="cls-2" d="M1070.66,276.47h19.11V283h-19.11v11h20v6.5h-27.91V259.54h27.91V266h-20Z"/><path class="cls-2" d="M1104.85,276.47h19.06V259.54h7.87v40.91h-7.87V283h-19.06v17.48H1097V259.54h7.87Z"/><path class="cls-2" d="M1147.24,292.64l-2.57,7.81h-8.14l13.6-40.91h11.53l13.88,40.91h-8l-2.62-7.81Zm8.8-27.1-7,21.25h14.1Z"/><path class="cls-2" d="M1193.23,259.54l11.09,30.37h.22l10.87-30.37h13.38v40.91h-7.86V266L1208,300.45h-7l-12.84-34.25v34.25h-7.86V259.54Z"/></svg>