<svg id="Layer_1" data-name="Layer 1" xmlns="http://www.w3.org/2000/svg" viewBox="0 0 1414 202"><defs><style>.cls-1{fill:#4a4b4c;}.cls-2{fill:#ec1c26;}</style></defs><path class="cls-1" d="M307.64,165.31c-3.92-.71-7.9-1.39-11.89-2q-4.33-.71-8.69-1.34a663.31,663.31,0,0,0-170.15-2.2c-42.52,5-80.75,13.82-112.28,25.85,62.56-39,178-58.3,291.12-48.74q17.13,1.46,34.14,3.79Z"/><path class="cls-2" d="M312.35,131.3c-71.89,0-132.09-115.73-147.59-112.87C149.26,15.57,89.07,131.3,17.17,131.3c71.9,0,132.09-33.38,147.59-78.15C180.27,97.92,240.46,131.3,312.35,131.3Z"/><path class="cls-1" d="M397.89,64.81c1.63-8.89,1.88-11.53,1.88-12.53,0-2.75-1.26-3.51-4.64-3.51-4.38,0-5.51,1.38-6.39,6.52L380,104.9a17.46,17.46,0,0,0-.38,3.26c0,2.63,1.26,3.26,4.51,3.26,4.39,0,5.77-1.25,6.64-6.51L393,92h19.92l-1.75,9.77c-3.64,21.18-8.9,26.31-29.57,26.31-18.17,0-24.81-2.88-24.81-15.28a66.56,66.56,0,0,1,1.13-11l7.77-43.47C369.45,37,375.33,32,398.64,32c16.29,0,21.55,3.76,21.55,14.53,0,3.26-.38,6.89-2.38,18.29Z"/><path class="cls-1" d="M481.7,33.11l-2.88,16.54H464L450.38,127H428.45l13.66-77.31H427.33l2.88-16.54Z"/><path class="cls-1" d="M496.48,127H474.56L491.1,33.11H513c20.42,0,29.82,2.63,29.82,16.29a48.75,48.75,0,0,1-.75,7.77l-3.38,19c-3.39,19.05-12.66,23.43-34.08,23.43h-3.39Zm7.77-43.86h4.89c4.88,0,6.64-1.37,7.64-6.76l3.26-18a41.92,41.92,0,0,0,.62-4.77c0-3.13-1.62-3.88-5.63-3.88h-4.89Z"/><path class="cls-1" d="M610,47.4a63.53,63.53,0,0,1-1.13,10.9l-7.76,43.47c-4,22.3-9.53,26.31-33,26.31-18.41,0-24.93-2.88-24.93-15.16a65.91,65.91,0,0,1,1.13-11.15l7.77-43.47C555.87,37,561.88,32,585.18,32,603.48,32,610,35.24,610,47.4Zm-34.83,7.89-8.64,49a24,24,0,0,0-.38,3.51c0,2.88,1.38,3.75,5,3.75,4.64,0,5.89-1.25,6.89-6.64L586.69,56a24.92,24.92,0,0,0,.37-3.76c0-2.88-1.25-3.76-4.88-3.76C577.54,48.52,576.16,49.9,575.16,55.29Z"/><path class="cls-1" d="M647,33.11,634.29,95.38l27.94-62.27h25.56L671.25,127H651.33l12.41-60.65L636.55,127H610.49L627,33.11Zm3.13-29.06a9.87,9.87,0,0,0-.25,2.25c0,5.51,4,8.27,11.65,8.27,8.65,0,13.28-3.26,15.29-10.52h8.77c-3.76,14.65-11.78,21.3-25.94,21.3-12.78,0-18.79-5.52-18.79-17.17a39.34,39.34,0,0,1,.25-4.13Z"/><path class="cls-1" d="M725.5,84.36,723,99H688.92l2.5-14.65Z"/><path class="cls-1" d="M779.37,33.11V107l25.94-73.92H836.5L820,127H800.29l15.29-79.44L787,127h-24.3V47.52L750.18,127H731.39l16.53-93.85Z"/><path class="cls-1" d="M895.51,33.11,893.38,127H871l1.5-22.93h-13.9L852,127H830.11l30.57-93.85ZM873.33,88.24l3-44.23L863.43,88.24Z"/><path class="cls-1" d="M961.28,33.11,958.4,49.65H943.62L930,127H908l13.66-77.31H906.91l2.88-16.54Z"/><path class="cls-1" d="M1012,33.11l-2.88,16.54H989.72l-3.63,20.42h18.16l-2.75,15.79H983.33L979,110.42h21.29L997.36,127H954.14l16.54-93.85Z"/><path class="cls-1" d="M1031.19,127h-21.93l16.54-93.85h21.93c20.42,0,29.82,2.63,29.82,16.29a47.75,47.75,0,0,1-.76,7.77l-3.38,19c-3.38,19.05-12.65,23.43-34.08,23.43H1036ZM1039,83.1h4.88c4.89,0,6.64-1.37,7.65-6.76l3.25-18a40.38,40.38,0,0,0,.63-4.77c0-3.13-1.63-3.88-5.64-3.88h-4.89Z"/><path class="cls-1" d="M1112.37,33.11l-12.65,62.27,27.94-62.27h25.55L1136.68,127h-19.92l12.4-60.65L1102,127h-26.06l16.54-93.85Z"/><path class="cls-1" d="M1212.22,33.11,1210.09,127h-22.43l1.51-22.93h-13.91L1168.74,127h-21.92l30.57-93.85ZM1190,88.24l3-44.23-12.9,44.23Z"/><path class="cls-1" d="M1301.67,33.11,1285.13,127h-21.92l13.53-77.31h-11.4l-7.9,44.73c-3.63,20.55-13.65,33.45-30.82,33.45a45.23,45.23,0,0,1-11.15-1.13l3.64-20.29c1.62.75,3.5.87,6.51.87,6.14,0,8.4-4.26,9.9-12.9l10.9-61.27Z"/><path class="cls-1" d="M1332.24,69.32h3.63c18.29,0,26.19,3.64,26.19,16.16a45,45,0,0,1-.75,7.65l-1.76,9.64c-3.76,20.43-13.66,24.19-37.46,24.19h-21.93l16.54-93.85h21.93Zm-7.27,41.1h4.89c4.88,0,6.76-1.38,7.64-6.64l1.76-9.9a25.84,25.84,0,0,0,.5-4c0-3.13-1.63-4-5.52-4h-4.88ZM1388.62,127h-21.93l16.54-93.85h21.93Z"/><path class="cls-2" d="M842.67,144.86l-6.86,38.69H824.57l5.33-30.15h-5.55L819,183.55H807.78l6.86-38.69Z"/><path class="cls-2" d="M876.83,153.19a35.78,35.78,0,0,1-.66,6.27L874.49,169c-2.12,12-5.84,15.18-17.22,15.18-9.13,0-12.7-2-12.7-9a38.9,38.9,0,0,1,.65-6.35l1.68-9.42c2.12-12,6-15.25,17.37-15.25C873.32,144.21,876.83,146.32,876.83,153.19ZM859,156.69l-2.63,15.11a9,9,0,0,0-.22,1.82c0,1.53.73,2,2.63,2,2.48,0,3.28-.95,3.79-3.86l2.63-15a12.11,12.11,0,0,0,.22-2c0-1.53-.73-2-2.56-2C860.33,152.75,859.46,153.7,859,156.69Z"/><path class="cls-2" d="M931.57,153.19a35.78,35.78,0,0,1-.66,6.27L929.23,169c-2.12,12-5.84,15.18-17.22,15.18-9.13,0-12.7-2-12.7-9a38.9,38.9,0,0,1,.65-6.35l1.68-9.42c2.12-12,6-15.25,17.37-15.25C928.06,144.21,931.57,146.32,931.57,153.19Zm-17.89,3.5-2.62,15.11a9,9,0,0,0-.22,1.82c0,1.53.73,2,2.62,2,2.49,0,3.29-.95,3.8-3.86l2.63-15a12.11,12.11,0,0,0,.22-2c0-1.53-.73-2-2.56-2C915.07,152.75,914.2,153.7,913.68,156.69Z"/><path class="cls-2" d="M968.42,144.86l-6.86,38.69H950.32l5.33-30.15H950.1l-5.32,30.15H933.54l6.86-38.69Z"/><path class="cls-2" d="M1000,144.86l-1.53,8.54h-7.66l-5.33,30.15H974.19l5.33-30.15h-7.66l1.53-8.54Z"/><path class="cls-2" d="M1031.34,153.19a35.78,35.78,0,0,1-.66,6.27L1029,169c-2.12,12-5.84,15.18-17.22,15.18-9.13,0-12.7-2-12.7-9a38.9,38.9,0,0,1,.65-6.35l1.68-9.42c2.12-12,6-15.25,17.37-15.25C1027.83,144.21,1031.34,146.32,1031.34,153.19Zm-17.88,3.5-2.63,15.11a9,9,0,0,0-.22,1.82c0,1.53.73,2,2.63,2,2.48,0,3.28-.95,3.79-3.86l2.63-15a12.11,12.11,0,0,0,.22-2c0-1.53-.73-2-2.56-2C1014.84,152.75,1014,153.7,1013.46,156.69Z"/><path class="cls-2" d="M1040.17,144.86h15.69c7.59,0,9.71,2.19,9.71,6.36a23.48,23.48,0,0,1-.37,3.64c-.87,5.11-2.92,8.25-8.46,9.13,4.3.87,6.56,2.48,6.56,5.84a24.39,24.39,0,0,1-.43,3.64c-1.32,7.81-5,10.08-12.56,10.08h-17Zm5.77,31h2.7a3,3,0,0,0,3.13-2.62,28.68,28.68,0,0,0,.59-3.43c0-1.25-.81-2-2.34-2h-2.7Zm2.7-15.32h2.26a2.93,2.93,0,0,0,3.14-2.7c.43-2.12.58-3.14.58-3.29,0-1.24-.95-2-2.41-2H1050Z"/><path class="cls-2" d="M1084.33,159.24h6.13c6.06,0,9.19,2.19,9.19,7.15a44.4,44.4,0,0,1-1,6.5c-1.38,7.74-5,10.66-12.55,10.66h-17.37l6.86-38.69h11.24Zm-2.92,16.64h2.7a3.12,3.12,0,0,0,3.28-2.62,38.21,38.21,0,0,0,.73-4.31c0-1.1-.73-2-2.48-2h-2.7Zm30.94,7.67h-11.24l6.86-38.69h11.24Z"/><path class="cls-2" d="M1143.52,144.86l.66,28.91,10.87-28.91h16.49l-6.86,38.69h-10.21l5.54-31.31-12,31.31h-11.09l-1-31.31-5.55,31.31h-10.22l6.86-38.69Z"/><path class="cls-2" d="M1204.68,175h5.55l5.33-30.15h11.24L1221.47,175h3.14l-3.14,17.66h-10.58l1.6-9.12h-20.58l6.86-38.68H1210Z"/><path class="cls-2" d="M1242,167l-.73,4.16a15.38,15.38,0,0,0-.29,2.55c0,1.54.72,2,2.84,2,2.7,0,3.58-.73,4.23-4.67h11.1l-.51,2.56c-1.76,8.9-6.21,10.65-17.37,10.65-8.54,0-11.83-2.48-11.83-9.12a33,33,0,0,1,.66-6.06l1.68-9.56c2.12-12,6-15.25,17.37-15.25,9,0,12.63,2.19,12.63,9a35.06,35.06,0,0,1-.66,6.2l-1.31,7.52Zm8.39-7.52a39.65,39.65,0,0,0,.87-5.62c0-1.68-.87-2.11-3.06-2.11-2.77,0-3.65.72-4.23,4l-.66,3.72Z"/><path class="cls-2" d="M1279.35,158.8h5.54l2.48-13.93h11.24l-6.86,38.68h-11.24l2.85-16.21h-5.55L1275,183.55h-11.24l6.86-38.68h11.24Z"/><path class="cls-2" d="M1304.82,156.18l.51-2.77c1.39-7.82,5.18-9.2,14.82-9.2,8.24,0,12,1,12,6.27a14.47,14.47,0,0,1-.29,2.92l-5.33,30.15h-10.65l.58-3.07c-2.26,2.85-4.89,3.72-8.9,3.72-5.33,0-7.59-1.75-7.59-6.42a21.74,21.74,0,0,1,.44-4.09l.8-4.67c1.17-6.42,4.82-9.41,11-9.41a11,11,0,0,1,6.93,2.26c1-5.76,1.25-7.3,1.25-7.73,0-1.39-.66-1.83-2.27-1.83-2.19,0-2.84.88-3.43,3.87Zm7.59,12.92a34,34,0,0,0-.8,4.74c0,1,.58,2,2.33,2a2.91,2.91,0,0,0,3.14-2.63,33.17,33.17,0,0,0,.8-4.89c0-1-.51-1.89-2.26-1.89A3,3,0,0,0,1312.41,169.1Z"/><path class="cls-2" d="M1357.66,144.86l.66,28.91,10.87-28.91h16.5l-6.86,38.69h-10.22l5.55-31.31-12.05,31.31H1351l-1-31.31-5.54,31.31h-10.22l6.86-38.69Z"/></svg>