<?xml version="1.0" standalone="no"?>
<!DOCTYPE svg PUBLIC "-//W3C//DTD SVG 20010904//EN"
 "http://www.w3.org/TR/2001/REC-SVG-20010904/DTD/svg10.dtd">
<svg version="1.0" xmlns="http://www.w3.org/2000/svg"
 width="990.000000pt" height="990.000000pt" viewBox="0 0 990.000000 990.000000"
 preserveAspectRatio="xMidYMid meet">
<metadata>
Created by potrace 1.11, written by Peter Selinger 2001-2013
</metadata>
<g transform="translate(0.000000,990.000000) scale(0.100000,-0.100000)"
fill="#000000" stroke="none">
<path d="M2879 9602 l-76 -3 -1 -347 c0 -191 -1 -354 -1 -363 -1 -14 -50 -16
-478 -17 -263 0 -489 -1 -503 -1 l-25 -1 0 -1872 1 -1873 160 -3 160 -2 -1
1337 c0 736 1 1345 3 1353 3 13 113 15 926 14 508 0 928 -4 934 -8 7 -4 12 -3
12 1 0 9 94 7 118 -2 6 -2 12 -1 12 3 0 5 1462 7 1795 2 17 0 49 1 73 2 23 2
42 0 42 -4 0 -4 12 -4 28 0 15 4 56 6 92 5 36 -2 72 -3 80 -3 8 0 330 1 715 3
385 1 710 -1 722 -5 12 -4 24 -4 27 0 3 6 81 7 131 3 11 -1 12 -4817 1 -4828
-3 -4 -208 -6 -455 -6 l-448 0 -34 -31 c-19 -17 -63 -56 -99 -85 -36 -30 -74
-64 -86 -75 -12 -12 -34 -32 -50 -46 -35 -30 -174 -151 -190 -165 -6 -5 -37
-32 -69 -60 -32 -27 -69 -59 -81 -70 -12 -11 -66 -58 -119 -105 -54 -47 -110
-96 -124 -109 -14 -12 -46 -39 -70 -60 -24 -20 -64 -55 -89 -78 -24 -24 -46
-43 -49 -43 -2 0 -14 -9 -26 -21 -12 -11 -44 -40 -71 -62 -26 -23 -63 -55 -81
-72 -28 -26 -69 -62 -169 -148 -12 -10 -46 -40 -76 -67 -63 -55 -84 -74 -159
-138 -30 -26 -59 -51 -65 -57 -6 -5 -47 -41 -91 -80 -44 -38 -93 -82 -110 -97
-42 -39 -35 -42 -135 45 -14 12 -55 47 -90 77 -36 30 -70 60 -76 65 -6 6 -35
30 -64 55 -29 25 -58 50 -64 55 -6 6 -40 35 -76 65 -36 30 -69 60 -75 66 -5 5
-39 35 -75 64 -36 30 -72 62 -80 70 -8 8 -35 31 -60 51 -25 20 -62 52 -82 70
-20 19 -54 48 -75 66 -83 70 -99 83 -118 101 -11 10 -67 59 -125 108 -58 49
-107 91 -110 94 -3 3 -68 59 -145 125 -77 66 -145 124 -151 130 -6 5 -35 30
-64 55 -29 25 -58 50 -64 55 -11 10 -123 106 -176 151 -14 12 -46 40 -72 62
l-46 39 -518 -1 -518 -1 -1 -153 c0 -85 4 -156 9 -160 5 -3 213 -6 461 -6
l452 -1 64 -55 c35 -30 66 -57 69 -60 3 -3 57 -50 120 -104 63 -54 140 -120
170 -146 30 -26 78 -67 105 -90 28 -23 58 -50 67 -59 9 -9 23 -21 30 -26 7 -6
60 -51 118 -100 57 -50 115 -99 129 -110 13 -11 34 -29 45 -40 12 -11 51 -45
86 -75 36 -30 70 -59 76 -65 6 -5 33 -28 59 -50 26 -22 55 -47 64 -55 9 -8 46
-40 81 -70 112 -96 123 -105 146 -125 12 -11 46 -41 75 -66 30 -25 90 -77 134
-115 44 -38 91 -79 105 -90 59 -51 186 -160 196 -169 6 -5 35 -30 64 -55 29
-25 61 -53 71 -64 15 -16 20 -16 37 -5 18 13 113 95 172 149 15 14 51 45 80
70 29 25 60 52 69 60 9 9 47 43 86 75 38 33 76 67 85 75 9 8 45 40 80 70 35
30 68 60 74 65 6 6 43 37 81 70 39 33 75 67 82 75 7 8 13 12 13 9 0 -3 19 12
43 35 23 23 66 61 96 86 29 25 66 57 82 71 15 14 54 48 85 75 31 27 77 67 102
89 25 22 54 48 66 58 12 9 35 30 52 45 16 15 59 52 94 82 34 30 68 59 74 65 6
5 42 37 81 70 38 33 82 71 97 85 15 14 39 36 55 49 15 13 57 49 93 81 36 32
85 75 111 96 25 22 57 51 73 65 l27 26 550 -1 c303 -1 553 2 555 6 7 12 7
6188 0 6195 -3 3 -224 6 -490 6 l-484 1 0 358 c0 198 -2 362 -5 365 -6 5
-4148 10 -4288 5z m1940 -326 c13 -8 10 -394 -3 -399 -6 -2 -389 -3 -851 -3
l-840 1 -1 202 -1 202 31 3 c53 5 1656 -1 1665 -6z m2028 0 c4 -3 6 -296 4
-382 l-1 -20 -850 0 -850 0 0 202 0 203 43 3 c66 5 1649 -1 1654 -6z m-3546
-726 l507 0 -2 -202 -1 -202 -835 -1 c-459 -1 -839 0 -845 2 -6 2 -10 77 -10
201 l1 197 44 5 c25 3 178 4 340 3 162 -1 523 -2 801 -3z m4525 -2 c10 -11 7
-390 -3 -396 -9 -5 -1644 -8 -1675 -3 -3 1 -6 90 -5 199 l1 197 545 5 c631 6
1130 5 1137 -2z m-2008 -200 l-3 -202 -840 0 -840 0 -3 202 -2 202 845 0 845
0 -2 -202z"/>
<path d="M5726 7395 c-14 -11 -33 -27 -43 -35 -66 -53 -129 -106 -133 -110 -5
-5 -91 -76 -133 -110 -11 -8 -24 -20 -31 -25 -6 -6 -36 -30 -66 -55 -30 -25
-64 -53 -75 -62 -11 -9 -81 -67 -155 -128 -120 -100 -181 -151 -240 -200 -10
-8 -38 -32 -63 -53 l-46 -39 34 -36 c18 -20 43 -48 55 -62 27 -31 124 -141
159 -180 14 -16 46 -52 71 -81 25 -28 57 -64 72 -80 l27 -30 38 33 c21 18 47
42 59 53 11 11 63 58 114 105 52 47 106 96 120 110 27 25 56 51 209 190 46 41
103 94 126 117 24 23 45 36 47 30 2 -7 4 -760 3 -1674 0 -1662 0 -1663 20
-1664 26 0 920 0 961 0 l30 1 0 2002 -1 2003 -568 0 c-554 0 -568 0 -591 -20z"/>
<path d="M2635 5836 l0 -721 190 0 190 0 -1 110 c-3 212 -12 444 -18 454 -4 5
-2 12 4 16 6 4 8 11 5 16 -4 5 -8 78 -11 161 -3 84 -6 197 -8 250 -2 54 0 95
5 93 4 -3 15 -31 24 -63 9 -31 29 -97 45 -147 15 -49 42 -137 60 -195 18 -58
41 -132 52 -165 11 -33 21 -67 23 -75 2 -8 20 -67 40 -130 20 -63 38 -119 39
-125 12 -48 20 -72 25 -80 3 -5 6 -15 7 -22 4 -26 27 -88 35 -93 4 -3 140 -5
301 -5 l292 0 1 705 c0 388 -1 712 -3 721 -3 13 -28 16 -193 15 l-190 0 6
-185 c3 -102 8 -238 10 -301 2 -63 7 -209 10 -325 4 -115 8 -227 9 -248 4 -68
-10 -48 -43 61 -18 59 -51 165 -73 235 -22 70 -41 133 -42 140 -1 7 -5 17 -8
23 -4 6 -9 21 -12 35 -3 13 -22 76 -41 139 -20 63 -38 122 -40 130 -2 8 -4 15
-5 15 0 0 -20 63 -44 140 l-42 140 -300 1 -299 1 0 -721z"/>
<path d="M4298 6085 c-2 -1 -25 -5 -53 -8 -113 -12 -169 -66 -182 -176 -9 -77
-10 -175 -1 -198 4 -12 3 -25 -1 -28 -10 -6 19 -109 40 -143 18 -28 80 -59
139 -68 55 -8 200 -11 200 -4 0 3 16 5 35 5 20 -1 38 2 41 7 3 4 12 8 21 8 31
0 81 49 100 97 14 38 18 76 18 188 0 164 -7 204 -42 245 -45 54 -89 68 -238
75 -41 1 -75 2 -77 0z m113 -154 c28 -2 45 -56 47 -142 2 -87 -10 -150 -32
-168 -8 -6 -35 -13 -60 -15 -85 -6 -111 36 -109 173 3 148 19 164 154 152z"/>
<path d="M4062 5342 c-7 -14 -8 -86 -3 -124 1 -5 136 -8 301 -8 l300 0 0 74 0
74 -295 0 c-266 0 -296 -1 -303 -16z"/>
<path d="M1959 2517 c-5 -63 -2 -300 3 -303 4 -3 165 -5 358 -5 252 -1 354 -4
363 -12 6 -7 64 -57 127 -112 63 -55 122 -107 130 -115 9 -8 42 -37 74 -65 32
-27 64 -55 70 -61 11 -10 205 -181 345 -303 36 -31 76 -67 91 -81 14 -14 51
-46 81 -72 30 -26 66 -57 80 -70 14 -13 52 -45 84 -73 32 -27 65 -57 74 -65 9
-9 52 -47 96 -85 44 -39 82 -72 85 -75 3 -3 39 -34 80 -70 41 -36 80 -69 86
-75 6 -5 37 -32 69 -60 31 -27 70 -61 85 -75 23 -22 104 -93 174 -153 12 -10
35 -31 51 -45 17 -15 69 -61 115 -102 47 -41 90 -79 96 -85 39 -35 141 -123
159 -137 20 -16 23 -16 46 5 13 12 76 67 139 122 63 55 124 108 135 118 11 10
37 33 58 50 21 18 53 46 71 62 18 17 58 53 90 80 94 81 213 184 230 200 6 6
67 59 136 119 69 60 154 134 190 166 36 32 88 77 115 100 28 23 57 49 65 58 8
10 28 27 44 39 15 13 58 49 95 81 71 63 133 117 226 197 32 28 65 57 74 66 9
8 90 80 181 159 91 78 183 159 206 179 22 20 65 57 95 83 30 26 69 60 88 77
l33 30 407 0 c223 0 429 0 457 1 l52 0 -1 159 -1 160 -518 0 c-432 0 -520 -2
-531 -14 -8 -8 -52 -46 -98 -86 -46 -39 -86 -75 -89 -78 -3 -3 -34 -31 -70
-61 -36 -30 -67 -58 -70 -61 -3 -3 -79 -70 -170 -149 -91 -79 -176 -153 -190
-166 -14 -12 -63 -55 -110 -95 -47 -41 -87 -76 -90 -79 -3 -3 -61 -54 -130
-114 -69 -60 -141 -123 -160 -140 -19 -17 -69 -60 -110 -96 -41 -35 -80 -69
-86 -74 -6 -6 -40 -36 -75 -66 -35 -30 -70 -62 -79 -70 -9 -8 -47 -42 -85 -75
-39 -33 -72 -62 -75 -65 -3 -3 -25 -22 -50 -44 -56 -48 -142 -123 -179 -156
-16 -14 -41 -36 -57 -50 -145 -127 -185 -160 -191 -160 -5 0 -26 17 -48 38
-22 20 -76 68 -120 107 -44 38 -93 82 -110 96 -16 15 -70 62 -120 105 -49 44
-95 84 -101 89 -6 6 -42 37 -79 70 -38 33 -80 70 -93 83 -14 12 -48 41 -75 65
-28 23 -68 58 -88 77 -21 19 -48 44 -61 54 -32 27 -258 226 -283 249 -11 10
-37 33 -58 50 -21 18 -53 46 -71 62 -18 17 -61 55 -96 85 -35 30 -75 66 -90
80 -15 14 -51 46 -81 72 -30 25 -65 56 -79 68 -14 12 -49 43 -79 68 -30 26
-61 54 -70 62 -9 9 -47 43 -85 75 -39 33 -82 71 -96 85 -39 36 -150 133 -169
147 -25 17 -841 18 -842 0z"/>
</g>
</svg>
