<?xml version="1.0" standalone="no"?>
<!DOCTYPE svg PUBLIC "-//W3C//DTD SVG 20010904//EN"
 "http://www.w3.org/TR/2001/REC-SVG-20010904/DTD/svg10.dtd">
<svg version="1.0" xmlns="http://www.w3.org/2000/svg"
 width="700.000000pt" height="700.000000pt" viewBox="0 0 700.000000 700.000000"
 preserveAspectRatio="xMidYMid meet">
<metadata>
Created by potrace 1.11, written by Peter Selinger 2001-2013
</metadata>
<g transform="translate(0.000000,700.000000) scale(0.100000,-0.100000)"
fill="#000000" stroke="none">
<path d="M3375 5391 c-60 -27 -165 -127 -325 -307 -14 -16 -95 -112 -179 -214
-240 -288 -464 -550 -565 -660 -128 -137 -333 -346 -437 -442 -94 -86 -123
-111 -250 -214 -399 -321 -765 -500 -1147 -560 -62 -10 -51 -16 18 -10 36 3
101 8 145 11 108 7 259 23 365 40 14 2 41 7 60 10 19 3 46 8 60 10 53 11 76
15 105 21 202 36 612 161 770 234 11 5 43 19 70 30 106 46 301 146 380 195
502 312 830 674 987 1088 l15 39 18 -49 c137 -369 452 -731 880 -1012 141 -92
439 -248 575 -301 47 -18 99 -38 115 -45 71 -30 380 -124 465 -141 13 -3 60
-14 105 -24 83 -19 89 -21 190 -39 63 -11 166 -26 248 -35 115 -14 137 -16
217 -21 47 -3 104 -8 128 -10 23 -1 45 2 49 8 3 5 2 7 -4 4 -15 -9 -191 29
-307 67 -143 47 -287 113 -424 193 -41 24 -75 43 -77 43 -7 0 -239 163 -285
199 -24 20 -54 43 -65 52 -316 254 -660 610 -1085 1119 -333 400 -419 499
-517 597 -137 135 -208 165 -298 124z"/>
<path d="M6458 2983 c6 -2 18 -2 25 0 6 3 1 5 -13 5 -14 0 -19 -2 -12 -5z"/>
<path d="M4897 2914 c-1 -1 -119 -4 -262 -8 -143 -4 -296 -8 -340 -11 -132 -7
-277 -16 -325 -20 -25 -2 -83 -6 -130 -9 -47 -4 -101 -9 -120 -11 -19 -3 -69
-7 -110 -10 -41 -3 -91 -7 -110 -10 -19 -3 -51 -7 -70 -9 -123 -14 -158 -18
-180 -21 -14 -2 -65 -9 -115 -15 -49 -6 -146 -20 -215 -31 -69 -11 -136 -22
-150 -23 -135 -20 -447 -80 -655 -126 -783 -176 -1439 -414 -1987 -721 -54
-30 -97 -57 -98 -61 0 -3 35 7 78 24 216 83 768 245 1000 293 9 2 61 13 116
25 120 26 94 21 316 64 102 19 201 38 220 40 19 3 46 8 60 10 33 6 214 33 270
41 25 3 56 8 70 10 66 9 110 15 160 20 30 4 66 8 80 10 14 2 50 6 80 10 30 3
71 8 90 10 19 3 67 7 105 10 39 3 86 7 105 10 19 2 76 7 125 10 50 4 108 8
130 10 38 4 165 12 320 20 385 21 1051 21 1425 0 140 -8 238 -15 305 -20 33
-2 98 -7 145 -10 47 -4 99 -8 115 -10 17 -1 59 -6 95 -9 61 -6 100 -10 210
-21 44 -5 111 -13 160 -20 14 -2 68 -9 120 -15 52 -6 136 -18 185 -25 50 -8
108 -16 130 -20 22 -3 93 -15 158 -26 117 -20 119 -20 136 -1 9 11 54 62 101
113 108 119 158 174 201 223 19 21 62 69 96 105 70 75 71 72 -43 85 -32 4 -75
9 -94 11 -37 5 -96 12 -167 20 -24 3 -64 7 -89 10 -25 3 -73 8 -107 11 -34 2
-75 6 -92 9 -16 2 -77 7 -135 11 -58 3 -116 8 -130 9 -14 2 -86 7 -160 10 -74
4 -155 9 -180 11 -88 6 -837 22 -843 18z"/>
</g>
</svg>
