<svg id="Layer_1" data-name="Layer 1" xmlns="http://www.w3.org/2000/svg" xmlns:xlink="http://www.w3.org/1999/xlink" viewBox="0 0 584.88 396.04"><defs><style>.cls-1{fill:url(#Безымянный_градиент);}.cls-2{fill:url(#Безымянный_градиент_2);}.cls-3{fill:url(#Безымянный_градиент_3);}.cls-4{isolation:isolate;}.cls-5{fill:#fff;}</style><linearGradient id="Безымянный_градиент" x1="-265.58" y1="403.84" x2="-265.58" y2="79.91" gradientTransform="matrix(1, 0, 0, -1, 558.02, 403.84)" gradientUnits="userSpaceOnUse"><stop offset="0" stop-color="#ff1c1c"/><stop offset="0.42" stop-color="#ec1c26"/><stop offset="1" stop-color="#26121c"/></linearGradient><linearGradient id="Безымянный_градиент_2" x1="-269.29" y1="401.96" x2="-269.29" y2="80.49" gradientTransform="matrix(1, 0, 0, -1, 558.02, 403.84)" gradientUnits="userSpaceOnUse"><stop offset="0" stop-color="#ff1c1c"/><stop offset="0.09" stop-color="#ff807c"/><stop offset="0.42" stop-color="#ec1c26"/><stop offset="1" stop-color="#c5151f"/></linearGradient><linearGradient id="Безымянный_градиент_3" x1="-124.92" y1="401.96" x2="-124.92" y2="80.49" gradientTransform="matrix(1, 0, 0, -1, 558.02, 403.84)" gradientUnits="userSpaceOnUse"><stop offset="0" stop-color="#ff1c1c"/><stop offset="0.09" stop-color="#ff807c"/><stop offset="0.16" stop-color="#f85b5c"/><stop offset="0.27" stop-color="#ec1c26"/><stop offset="1" stop-color="#ab121c"/></linearGradient></defs><title>12yaer-2.svg</title><polygon class="cls-1" points="584.88 396.04 293.84 325.96 0 396.04 0 0 584.88 0 584.88 396.04"/><polygon class="cls-2" points="577.46 391.25 290.11 322.05 0 391.25 0 0 577.46 0 577.46 391.25"/><polygon class="cls-3" points="288.73 0 288.73 322.38 290.11 322.05 577.46 391.25 577.46 0 288.73 0"/><g class="cls-4"><path class="cls-5" d="M393,192.2h-23.4v-67l-22.69,20.71-13.22-15,31.93-26.43H393Z"/><path class="cls-5" d="M488.34,192.2H419.21V174c0-19.07,4.21-24.33,30.88-29.95,15.56-3.27,16.15-4,16.15-12.16,0-8.78-3-10-12.4-10-10.65,0-12.52.94-12.52,10.3v4.21H419.21v-4.33c0-23.86,12.28-28.42,34.63-28.42,20.58,0,34.5,3,34.5,27.72,0,19.65-5.73,23.4-24.09,28.43-17.78,4.79-22.93,2.33-22.93,14.15h47Z"/></g><g class="cls-4"><path class="cls-5" d="M389.07,203v47.59H373.48V214.41H362.24v15.32c0,16.77-7.52,21.57-17.76,21.57a52.08,52.08,0,0,1-6.71-.36V239.7a27.47,27.47,0,0,0,3.17.18c5.62,0,6.62-4.53,6.62-10.42V203Z"/><path class="cls-5" d="M412.82,229.46c0,8.34,1.27,11,7.7,11,4.8,0,7.61-.1,7.61-5.08h15.59c0,14.68-10.06,16-23.2,16-18.76,0-23.3-6.71-23.3-24.47,0-18.31,4.17-24.75,23.3-24.75,17.86,0,23.2,5.35,23.2,24.75v2.63Zm15.31-8.61c0-7.07-2.63-7.89-7.88-7.89-5.53,0-7.44,1.63-7.44,7.89Z"/><path class="cls-5" d="M488,214.41H475.44v36.17H459.85V214.41H447.34V203H488v11.42Z"/></g><g class="cls-4"><path class="cls-5" d="M112.72,176h23.65V150.47H154.5v68H136.37V191.81H112.72v26.64H94.59v-68h18.13Z"/><path class="cls-5" d="M183.05,206.76l-3.36,11.69H160.84l20.39-68h27.56l20.66,68H211l-3.53-11.69Zm12.32-42.69h-.18l-8.25,29.55h16.77Z"/><path class="cls-5" d="M264.53,150.47l13,42.69h.63l12.33-42.69h29.46v68H301.78l1.81-52.11-.81-.19-17,52.3H270.06l-17.13-52.3-.82.19,1.81,52.11H235.8v-68Z"/></g></svg>